# xmcd
#
# Track frame offsets:
# 150
# 15968
# 37231
# 61641
# 87329
# 101016
# 114225
# 130425
# 151765
# 166894
# 180093
# 199594
# 210918
# 231018
#
# Disc length: 3470 seconds
#
#
# Revision: 0
# Processed by: cddbd v1.5.2PL0 Copyright (c) Steve Scherf et al.
# Submitted via: Nero 7, 10, 1, 0 
#
DISCID=9e0d8c0e
DTITLE=Alison Krauss - A Hundred Miles or More
DYEAR=1992
DGENRE=Country
TTITLE0=You're Just a Country Boy
TTITLE1=Simple Love
TTITLE2=Jcob's Dream
TTITLE3=Away Down the River
TTITLE4=Sawing on the Strings
TTITLE5=Down to the River to Pray
TTITLE6=Baby Mine
TTITLE7=Molly Ban
TTITLE8=How's the World Treating You
TTITLE9=The Scarlet Tide
TTITLE10=Whiskey Lullabye
TTITLE11=You Will Be My Ain True Love
TTITLE12=I Give You to His Heart
TTITLE13=Get Me Through December
EXTD=
EXTT0=You're Just a Country Boy
EXTT1=Simple Love
EXTT2=Jcob's Dream
EXTT3=Away Down the River
EXTT4=Sawing on the Strings
EXTT5=Down to the River to Pray
EXTT6=Baby Mine
EXTT7=Molly Ban
EXTT8=How's the World Treating You
EXTT9=The Scarlet Tide
EXTT10=Whiskey Lullabye
EXTT11=You Will Be My Ain True Love
EXTT12=I Give You to His Heart
EXTT13=Get Me Through December
PLAYORDER=
